<svg width="80" height="55" viewBox="0 0 80 55" fill="none" xmlns="http://www.w3.org/2000/svg">
<rect y="0.5" width="80" height="54" rx="6" fill="white"/>
<g clip-path="url(#clip0_291_1489)">
<path fill-rule="evenodd" clip-rule="evenodd" d="M48.3715 40.9009C51.1178 39.2341 51.2703 39.3786 49.8209 40.3934C48.3715 41.4075 50.9652 39.9587 49.5923 40.9009L48.9821 41.4805C48.9821 41.4805 47.9903 42.5676 47.3037 42.6399C46.617 42.7122 48.066 42.5676 47.0746 43.0028C46.0829 43.4372 38.8274 46.5472 27.0879 38.4368C30.3687 43.6547 36.166 45.9739 41.0484 46.0461C41.0484 46.0461 39.522 46.0461 40.3617 46.1911C41.2009 46.336 39.9801 47.4227 32.8091 44.8868C33.115 45.5387 33.1911 45.7559 34.0303 46.1911C34.0303 46.1911 24.6467 43.1469 21.3671 34.161C21.4432 35.2477 21.5192 36.4802 21.5192 36.4802C21.5192 36.4802 16.789 28.5079 22.435 18.6521C28.0801 8.79632 40.5146 8.43422 42.1927 8.50648C43.8711 8.57874 53.2535 10.608 55.3896 12.71C57.5261 14.8111 54.3221 13.4346 54.3221 13.4346C54.3221 13.4346 53.2535 14.0143 55.0088 14.8834C56.7629 15.7537 58.67 18.6521 57.2201 17.565C55.7711 16.4783 57.9068 18.8697 58.1358 19.0146C58.3645 19.1596 54.9319 17.565 55.8476 18.5072C56.7629 19.449 60.7296 23.5802 59.4331 24.8127C58.1358 26.0443 57.6778 22.638 57.4492 22.4209C57.2201 22.2029 57.8316 27.4212 57.4492 28.2904C57.0676 29.1603 57.1441 26.3345 56.3818 25.4646C55.619 24.5951 55.3896 24.6673 54.8554 24.6673C54.3221 24.6673 52.8727 23.2908 52.7198 22.4931C52.5672 21.6959 52.1096 21.4783 51.4225 20.8263C50.7362 20.174 49.6684 19.5221 48.3715 19.5943C47.0746 19.667 47.7613 18.1447 45.5487 18.1447C43.3366 18.1447 42.0393 17.783 40.1326 18.5799C38.226 19.3771 34.7166 20.3189 34.411 20.3912C34.1059 20.4638 37.615 18.5799 38.1495 18.2896C38.6832 18.0002 29.8342 20.174 28.3848 23.5076C26.9349 26.8419 25.6389 32.5665 30.5973 37.7841C35.5558 43.0028 44.4044 43.5094 48.3715 40.9009Z" fill="#1C9AEA"/>
<path d="M16.1838 26.3959C16.0669 26.3864 15.95 26.3515 15.8331 26.2913C15.7163 26.231 15.6089 26.1686 15.5109 26.1041C15.4141 26.0385 15.3484 25.9946 15.3139 25.9724C15.2315 25.8931 15.1681 25.8085 15.1236 25.7187C15.0801 25.6277 15.044 25.5082 15.015 25.3602C15.005 25.3052 15 25.2566 15 25.2143C15 25.0757 15.0256 24.9055 15.0768 24.7035C15.128 24.5026 15.1803 24.3466 15.2337 24.2356C15.3406 23.9892 15.5771 23.5953 15.9433 23.0539C15.9623 23.0349 15.9756 23.0222 15.9834 23.0159C15.9912 23.0085 15.9934 23.0037 15.9901 23.0016C15.9879 22.9995 15.9867 22.9984 15.9867 22.9984C15.9867 22.9656 16.0574 22.8218 16.1988 22.567C16.2823 22.4845 16.324 22.4131 16.324 22.3529C16.324 22.3201 16.3168 22.2942 16.3023 22.2751C16.2867 22.2572 16.3062 22.217 16.3607 22.1546C16.4142 22.0922 16.4882 22.0224 16.5828 21.9452C16.6785 21.8691 16.7798 21.8035 16.8867 21.7485C17.018 21.6513 17.1471 21.6026 17.274 21.6026C17.313 21.6026 17.3458 21.6084 17.3725 21.6201C17.3992 21.6306 17.4154 21.6476 17.421 21.6708C17.421 21.6994 17.5183 21.6904 17.7131 21.6439C17.8011 21.6248 17.8645 21.6132 17.9035 21.609C17.9224 21.5857 17.9725 21.5661 18.0537 21.5503C18.1339 21.5334 18.2469 21.5159 18.3927 21.4979C18.4706 21.5022 18.5669 21.5022 18.6815 21.4979C18.7962 21.4926 18.8707 21.4879 18.9052 21.4837C18.9386 21.4741 18.9887 21.4953 19.0555 21.5471C19.1212 21.5979 19.1735 21.6624 19.2125 21.7406C19.2225 21.7681 19.2275 21.7893 19.2275 21.8041C19.2275 21.8728 19.1807 21.9315 19.0872 21.9801C18.9948 22.0288 18.8607 22.0626 18.6849 22.0816C18.5045 22.1049 18.3465 22.1282 18.2107 22.1514C18.0738 22.1736 17.9029 22.2059 17.6981 22.2482L17.5445 22.2751C17.3931 22.2984 17.2813 22.3285 17.2089 22.3656C17.1354 22.4026 17.057 22.484 16.9735 22.6098C16.9401 22.6331 16.8967 22.6918 16.8433 22.7859C16.7887 22.8811 16.7347 22.9794 16.6813 23.0809L16.5361 23.2697C16.4236 23.4135 16.3541 23.507 16.3273 23.5504C16.3006 23.5948 16.2945 23.626 16.309 23.644C16.3279 23.6493 16.363 23.6561 16.4142 23.6646C16.4654 23.6741 16.5082 23.6815 16.5427 23.6868C16.5861 23.6635 16.6474 23.6472 16.7264 23.6376C16.8043 23.6281 16.86 23.6186 16.8934 23.6091L17.0553 23.5678C17.3569 23.4938 17.5785 23.4404 17.7198 23.4076C17.8612 23.3759 17.9664 23.3553 18.0354 23.3458C18.0587 23.3268 18.0877 23.3172 18.1222 23.3172C18.1756 23.3172 18.2279 23.3416 18.2791 23.3902C18.3303 23.4388 18.3682 23.4959 18.3927 23.5615C18.4127 23.626 18.4227 23.6678 18.4227 23.6868C18.4227 23.7651 18.3737 23.8237 18.2758 23.8629C18.179 23.902 17.9842 23.9543 17.6914 24.0199C17.2673 24.1172 17.0013 24.1796 16.8934 24.2071C16.5772 24.2948 16.3435 24.3387 16.1921 24.3387C16.0652 24.3387 16.004 24.2996 16.0085 24.2213C15.965 24.1981 15.9138 24.2398 15.8548 24.3466C15.797 24.4524 15.7474 24.584 15.7062 24.7416C15.664 24.8991 15.6428 25.0361 15.6428 25.1524C15.6428 25.2127 15.65 25.2634 15.6645 25.3047C15.709 25.4157 15.7753 25.5093 15.8632 25.5854C15.9511 25.6626 16.073 25.7218 16.2288 25.7631C16.2622 25.7684 16.3045 25.7731 16.3557 25.7773C16.4069 25.7816 16.467 25.7837 16.5361 25.7837C16.6329 25.7837 16.7303 25.7652 16.8282 25.7282C17.2089 25.6679 17.4772 25.5849 17.633 25.4791C17.6575 25.4696 17.6803 25.4532 17.7014 25.43C17.7237 25.4067 17.7449 25.3951 17.7649 25.3951L17.7565 25.4094C17.7565 25.4136 17.771 25.403 17.8 25.3776C17.83 25.3523 17.8617 25.3258 17.8951 25.2983C18.032 25.1873 18.1834 25.1318 18.3493 25.1318C18.4071 25.1318 18.4572 25.1397 18.4995 25.1556C18.5407 25.1714 18.5635 25.1862 18.568 25.2C18.598 25.2465 18.5836 25.3211 18.5246 25.4236C18.4656 25.5251 18.3743 25.6314 18.2508 25.7424C18.1261 25.8535 17.9881 25.9508 17.8367 26.0343C17.5985 26.1548 17.3319 26.2442 17.0369 26.3024C16.742 26.3595 16.4576 26.3906 16.1838 26.3959Z" fill="#032435"/>
<path d="M19.9571 26.152C19.8981 26.1615 19.8514 26.1662 19.8169 26.1662C19.6176 26.1662 19.4412 26.1049 19.2876 25.9822C19.134 25.8596 19.0572 25.7031 19.0572 25.5127L19.0488 25.4017C19.0488 25.1849 19.1 24.9327 19.2024 24.6451C19.3048 24.3575 19.4317 24.1238 19.5831 23.9441C19.7055 23.8098 19.8102 23.7008 19.897 23.6173C19.9849 23.5338 20.0656 23.4783 20.1391 23.4508C20.2025 23.4275 20.2832 23.4063 20.3812 23.3873C20.478 23.3693 20.5509 23.3604 20.5999 23.3604C20.6979 23.3836 20.7891 23.4159 20.8737 23.4571C20.9594 23.4983 21.0023 23.5449 21.0023 23.5967L21.039 23.6316C21.0724 23.6316 21.1125 23.6823 21.1592 23.7839C21.206 23.8854 21.2294 23.9779 21.2294 24.0614C21.2294 24.1027 21.2216 24.1376 21.206 24.1661C21.1871 24.2539 21.1498 24.3395 21.0941 24.4231C21.0373 24.5066 20.9895 24.5484 20.9505 24.5484C20.8971 24.5484 20.8704 24.5621 20.8704 24.5896C20.8704 24.6129 20.8409 24.6245 20.7819 24.6245C20.734 24.6245 20.6828 24.6139 20.6283 24.5928C20.5749 24.5716 20.5437 24.5452 20.5348 24.5135C20.5348 24.4902 20.5543 24.3977 20.5932 24.2359C20.6077 24.1661 20.6149 24.108 20.6149 24.0614C20.6149 23.9779 20.5854 23.9361 20.5264 23.9361C20.512 23.9361 20.4752 23.9456 20.4162 23.9647C20.2905 24.0292 20.1897 24.1043 20.114 24.1899C20.0384 24.2756 19.971 24.3924 19.912 24.5404C19.8541 24.6885 19.7862 24.9042 19.7083 25.1876C19.6927 25.2426 19.685 25.2933 19.685 25.3399C19.685 25.3959 19.6927 25.4408 19.7083 25.4747C19.7228 25.5096 19.7373 25.5297 19.7517 25.535C19.7762 25.5434 19.8202 25.5476 19.8836 25.5476C20.005 25.5476 20.1024 25.527 20.1758 25.4858C20.2638 25.4393 20.3489 25.3869 20.4313 25.3288C20.5148 25.2717 20.566 25.2362 20.5849 25.2225C20.5949 25.213 20.6144 25.186 20.6433 25.1416C20.6734 25.0982 20.7051 25.0692 20.7385 25.0543C20.7674 25.0131 20.8042 24.9877 20.8487 24.9782C20.8921 24.9687 20.9361 24.9639 20.9806 24.9639C21.024 24.9639 21.0529 24.9639 21.0674 24.9639C21.1308 24.983 21.1921 25.0247 21.2511 25.0892C21.3089 25.1548 21.3184 25.1966 21.2794 25.2145C21.265 25.2145 21.2555 25.2193 21.2511 25.2288C21.2455 25.2383 21.2427 25.2452 21.2427 25.2494C21.2527 25.2727 21.2138 25.334 21.1258 25.4334C21.0379 25.5328 20.9405 25.628 20.8337 25.7189C20.7268 25.8088 20.6539 25.8538 20.6149 25.8538C20.5949 25.8538 20.5776 25.8559 20.5632 25.8601C20.5487 25.8654 20.5415 25.877 20.5415 25.895C20.5415 25.914 20.4669 25.9569 20.3177 26.0235C20.1697 26.0912 20.0495 26.134 19.9571 26.152Z" fill="#032435"/>
<path d="M22.2325 26.0753C22.1735 26.0753 22.1268 26.0663 22.0923 26.0483C22.0589 26.0293 22.0105 25.9944 21.947 25.9436C21.8491 25.8463 21.7734 25.7459 21.7199 25.6422C21.6665 25.5376 21.647 25.4461 21.6615 25.3678C21.676 25.3351 21.6821 25.3023 21.6799 25.2695C21.6777 25.2378 21.6765 25.2172 21.6765 25.2076C21.6565 25.1886 21.6465 25.1759 21.6465 25.1696C21.6465 25.1622 21.6515 25.1553 21.6615 25.149C21.6715 25.1416 21.6788 25.1331 21.6832 25.1236C21.7122 25.1236 21.7222 25.0982 21.7133 25.0474C21.7033 25.0104 21.7199 24.9295 21.7634 24.8048C21.8079 24.6789 21.8641 24.5631 21.932 24.4574C21.9854 24.3739 22.0644 24.2697 22.1691 24.1449C22.2748 24.0191 22.3689 23.9239 22.4512 23.8594C22.695 23.6606 22.9143 23.5401 23.1091 23.4978C23.207 23.4745 23.3022 23.4629 23.3946 23.4629C23.5359 23.4629 23.6456 23.4999 23.7235 23.5739C23.8315 23.6162 23.9094 23.6765 23.9572 23.7547C24.0062 23.834 24.0379 23.9382 24.0524 24.0672C24.058 24.0958 24.0608 24.1423 24.0608 24.2068C24.0608 24.5494 23.9238 24.9063 23.65 25.2774C23.5387 25.4297 23.4269 25.5524 23.3144 25.6454C23.202 25.7374 23.0657 25.8299 22.9054 25.923C22.8174 25.978 22.7245 26.015 22.6266 26.034C22.5297 26.0531 22.3984 26.0668 22.2325 26.0753ZM22.9772 25.2283C23.0707 25.149 23.138 25.0691 23.1792 24.9888C23.2204 24.9073 23.2799 24.7646 23.3578 24.5605C23.3868 24.5193 23.4013 24.4363 23.4013 24.3115C23.4013 24.2004 23.3846 24.1375 23.3512 24.1227C23.3267 24.1047 23.2972 24.0958 23.2627 24.0958C23.2193 24.0958 23.1486 24.128 23.0506 24.1925C22.8803 24.3321 22.7379 24.477 22.6232 24.6271C22.5086 24.7773 22.4295 24.9496 22.3861 25.1442C22.3806 25.1632 22.3778 25.1913 22.3778 25.2283C22.3778 25.3858 22.4362 25.4646 22.5531 25.4646C22.6655 25.4646 22.8069 25.3858 22.9772 25.2283Z" fill="#032435"/>
<path d="M26.882 25.9583C26.5748 25.9488 26.4212 25.7844 26.4212 25.465C26.4212 25.3772 26.429 25.2916 26.4446 25.2081C26.4535 25.1055 26.4579 25.0336 26.4579 24.9923V24.9574V24.8813C26.4435 24.7883 26.4117 24.7417 26.3628 24.7417C26.2759 24.7417 26.114 24.8216 25.8769 24.9812C25.6409 25.142 25.3938 25.3334 25.1356 25.5554C25.0566 25.6337 24.9903 25.7077 24.9369 25.7775C24.8879 25.8378 24.8518 25.8748 24.8284 25.8885C24.8039 25.9023 24.7644 25.9091 24.7098 25.9091C24.6419 25.8996 24.564 25.851 24.4761 25.7632C24.3882 25.6754 24.3297 25.5967 24.3008 25.5269C24.3008 25.3979 24.3253 25.2741 24.3742 25.1557C24.4232 25.0373 24.4961 24.8877 24.593 24.7068C24.6375 24.5683 24.6937 24.4298 24.7616 24.2913C24.8351 24.1284 24.8874 24.0042 24.9185 23.9185C24.9508 23.8329 24.972 23.744 24.982 23.6521C24.982 23.6468 24.9803 23.6441 24.977 23.6441C24.9748 23.6441 24.9736 23.6441 24.9736 23.6441C24.9736 23.6261 24.9809 23.6103 24.9953 23.5965C25.0098 23.5817 25.0271 23.5743 25.0471 23.5743C25.0571 23.5606 25.0866 23.5537 25.1356 23.5537C25.2614 23.5537 25.371 23.5865 25.4645 23.6521C25.5569 23.7166 25.6031 23.816 25.6031 23.9502C25.6031 24.02 25.5897 24.0861 25.563 24.1485C25.5363 24.2109 25.4862 24.314 25.4127 24.4578L25.3326 24.6101C25.3181 24.6376 25.2959 24.6783 25.2658 24.7322C25.2369 24.7851 25.2224 24.8184 25.2224 24.8321C25.3449 24.7539 25.489 24.6497 25.6548 24.5197C25.8986 24.3346 26.0984 24.1913 26.2542 24.0898C26.4101 23.9873 26.5247 23.936 26.5982 23.936C26.6605 23.936 26.749 23.9698 26.8636 24.0375C26.9783 24.1041 27.0456 24.1654 27.0657 24.2215C27.0657 24.2532 27.0618 24.3018 27.054 24.3674C27.0473 24.4319 27.0412 24.4895 27.0356 24.5403L27.044 24.756C27.0484 24.793 27.0506 24.8485 27.0506 24.9226C27.0506 25.0706 27.0412 25.1747 27.0223 25.235C27.0267 25.2403 27.0312 25.2472 27.0356 25.2556C27.0412 25.2652 27.044 25.2726 27.044 25.2778L27.0356 25.2905C27.0412 25.3371 27.0685 25.4111 27.1174 25.5126C27.1653 25.6152 27.1892 25.6712 27.1892 25.6807C27.1892 25.7315 27.1542 25.7881 27.084 25.8504C27.0128 25.9128 26.9455 25.9488 26.882 25.9583Z" fill="#032435"/>
<path d="M28.2384 26.0753C28.1794 26.0753 28.1326 26.0663 28.0981 26.0483C28.0647 26.0293 28.0163 25.9944 27.9529 25.9436C27.8549 25.8463 27.7792 25.7459 27.7258 25.6422C27.6724 25.5376 27.6529 25.4461 27.6674 25.3678C27.6818 25.3351 27.688 25.3023 27.6857 25.2695C27.6835 25.2378 27.6824 25.2172 27.6824 25.2076C27.6624 25.1886 27.6523 25.1759 27.6523 25.1696C27.6523 25.1622 27.6574 25.1553 27.6674 25.149C27.6774 25.1416 27.6846 25.1331 27.6891 25.1236C27.718 25.1236 27.728 25.0982 27.7191 25.0474C27.7091 25.0104 27.7258 24.9295 27.7692 24.8048C27.8137 24.6789 27.87 24.5631 27.9378 24.4574C27.9913 24.3739 28.0703 24.2697 28.1749 24.1449C28.2807 24.0191 28.3747 23.9239 28.4571 23.8594C28.7009 23.6606 28.9201 23.5401 29.1149 23.4978C29.2129 23.4745 29.3081 23.4629 29.4004 23.4629C29.5418 23.4629 29.6514 23.4999 29.7294 23.5739C29.8373 23.6162 29.9152 23.6765 29.9631 23.7547C30.0121 23.834 30.0438 23.9382 30.0583 24.0672C30.0638 24.0958 30.0666 24.1423 30.0666 24.2068C30.0666 24.5494 29.9297 24.9063 29.6559 25.2774C29.5446 25.4297 29.4327 25.5524 29.3203 25.6454C29.2079 25.7374 29.0715 25.8299 28.9112 25.923C28.8233 25.978 28.7304 26.015 28.6324 26.034C28.5356 26.0531 28.4042 26.0668 28.2384 26.0753ZM28.983 25.2283C29.0765 25.149 29.1439 25.0691 29.1851 24.9888C29.2262 24.9073 29.2858 24.7646 29.3637 24.5605C29.3926 24.5193 29.4071 24.4363 29.4071 24.3115C29.4071 24.2004 29.3904 24.1375 29.357 24.1227C29.3325 24.1047 29.303 24.0958 29.2685 24.0958C29.2251 24.0958 29.1544 24.128 29.0565 24.1925C28.8862 24.3321 28.7437 24.477 28.6291 24.6271C28.5144 24.7773 28.4354 24.9496 28.392 25.1442C28.3864 25.1632 28.3836 25.1913 28.3836 25.2283C28.3836 25.3858 28.4421 25.4646 28.5589 25.4646C28.6714 25.4646 28.8127 25.3858 28.983 25.2283Z" fill="#032435"/>
<path d="M33.8885 25.9641C33.8251 25.9641 33.7766 25.9551 33.7433 25.9371C33.7043 25.9234 33.6542 25.8895 33.593 25.8356C33.5318 25.7827 33.4783 25.7066 33.4327 25.6072C33.386 25.5067 33.3626 25.3873 33.3626 25.2487C33.3626 25.161 33.3687 25.0832 33.3809 25.0156C33.3932 24.9489 33.3993 24.9061 33.3993 24.8871C33.3993 24.8638 33.3921 24.8522 33.3776 24.8522C33.2507 24.8522 32.9752 25.0721 32.5511 25.512C32.5367 25.5215 32.5244 25.5332 32.5144 25.5469C32.4554 25.5892 32.402 25.6336 32.3541 25.6802C32.2807 25.7447 32.2206 25.7917 32.1738 25.8213C32.1282 25.852 32.0781 25.8694 32.0235 25.8737C31.9902 25.8737 31.954 25.8599 31.915 25.8324L31.8349 25.7706C31.8104 25.7558 31.7881 25.7299 31.7681 25.6928C31.7492 25.6558 31.7397 25.6215 31.7397 25.5897V25.5691V25.5549L31.9067 25.0885C32.0291 24.8337 32.0903 24.6835 32.0903 24.6381C32.0903 24.6285 32.0881 24.6238 32.0837 24.6238C32.0391 24.6185 31.974 24.6545 31.8883 24.7316C31.8037 24.8078 31.6835 24.9267 31.5277 25.0885L31.1988 25.4153C31.1598 25.4523 31.0546 25.5633 30.8832 25.7484C30.7763 25.8742 30.7201 25.9371 30.7146 25.9371C30.6077 25.9371 30.5114 25.8975 30.4257 25.8182C30.3411 25.7399 30.2988 25.6453 30.2988 25.5342C30.2988 25.4782 30.3083 25.4036 30.3272 25.3106C30.3472 25.2186 30.3695 25.1218 30.394 25.0203C30.404 24.9823 30.4146 24.9405 30.4257 24.895C30.438 24.8485 30.4519 24.7951 30.4675 24.7348C30.4764 24.6883 30.4869 24.6375 30.4992 24.5826C30.5114 24.5265 30.537 24.4535 30.576 24.3637C30.6149 24.2727 30.6712 24.1464 30.7446 23.9846C30.7647 23.9243 30.7747 23.8619 30.7747 23.7974C30.7747 23.7646 30.7719 23.7334 30.7663 23.7038C30.7619 23.6732 30.7596 23.6531 30.7596 23.6436C30.7596 23.5748 30.7947 23.5161 30.8648 23.4675C30.9361 23.4189 31.0157 23.3945 31.1036 23.3945C31.2294 23.3945 31.324 23.4374 31.3874 23.523C31.4509 23.6087 31.4826 23.6975 31.4826 23.7895C31.4826 23.8688 31.4631 23.9455 31.4242 24.0195L31.344 24.2066C31.3251 24.2479 31.29 24.323 31.2388 24.4319C31.1876 24.5408 31.162 24.6069 31.162 24.6301C31.162 24.6439 31.1665 24.6508 31.1754 24.6508H31.1837C31.2082 24.6508 31.2472 24.6254 31.3006 24.5746C31.4564 24.4361 31.6451 24.2912 31.8666 24.14C32.0892 23.9899 32.2489 23.901 32.3458 23.8735C32.3847 23.8735 32.4359 23.8921 32.4994 23.9291C32.5628 23.9661 32.619 24.0158 32.668 24.0782C32.717 24.1405 32.7415 24.2087 32.7415 24.2828L32.7331 24.3383C32.7287 24.3573 32.7081 24.4361 32.6714 24.5746C32.6346 24.7142 32.6068 24.7951 32.5879 24.8173C32.6803 24.7158 32.8411 24.59 33.0704 24.4398C33.2997 24.2886 33.4678 24.2109 33.5746 24.2066C33.736 24.2066 33.8407 24.269 33.8885 24.3938C33.9375 24.5196 33.972 24.7026 33.992 24.9426C34.011 25.17 34.0377 25.3227 34.0722 25.401C34.0822 25.4295 34.1161 25.4528 34.174 25.4708C34.233 25.4898 34.2809 25.512 34.3176 25.5374C34.3532 25.5628 34.371 25.6125 34.371 25.6865C34.371 25.788 34.3237 25.8599 34.2291 25.9022C34.1345 25.9435 34.021 25.9641 33.8885 25.9641Z" fill="#032435"/>
<path d="M35.36 23.2195C35.3111 23.1867 35.2721 23.145 35.2432 23.0942C35.2131 23.0435 35.1959 22.9948 35.1914 22.9483C35.187 22.9018 35.192 22.8743 35.2064 22.8658C35.2354 22.833 35.2643 22.7886 35.2933 22.7326C35.3233 22.6776 35.3456 22.6385 35.36 22.6152C35.399 22.5317 35.4307 22.4714 35.4552 22.4344C35.4886 22.3699 35.5203 22.335 35.5504 22.3297C35.5893 22.3117 35.6211 22.3027 35.6455 22.3027C35.709 22.3027 35.778 22.3234 35.8526 22.3646C35.9283 22.4069 35.9856 22.4555 36.0246 22.5105C36.0591 22.5845 36.0763 22.6496 36.0763 22.7056C36.0763 22.8166 36.0201 22.9393 35.9077 23.0736C35.8587 23.1339 35.8003 23.1804 35.7324 23.2132C35.6645 23.2449 35.5966 23.2608 35.5287 23.2608C35.4597 23.2608 35.4035 23.247 35.36 23.2195ZM34.5703 26.0048C34.5013 25.9403 34.4668 25.8245 34.4668 25.6574C34.4668 25.5697 34.479 25.5025 34.5035 25.456C34.5035 25.4338 34.5085 25.4063 34.5186 25.3735C34.5286 25.3407 34.5336 25.3196 34.5336 25.3101C34.528 25.2826 34.5475 25.2064 34.592 25.0817C34.6499 24.9569 34.7239 24.7644 34.8141 24.5043C34.9042 24.2452 34.9666 24.0602 35.0011 23.9491C35.0011 23.9259 35.0111 23.9063 35.0311 23.8905C35.0501 23.8735 35.079 23.863 35.1179 23.8587C35.1714 23.8408 35.2398 23.863 35.3233 23.9254C35.4057 23.9877 35.4741 24.0581 35.5287 24.1363C35.5576 24.1649 35.5721 24.2019 35.5721 24.2473C35.5721 24.3171 35.5404 24.4144 35.4769 24.5392C35.4524 24.5899 35.4291 24.6529 35.4068 24.7279C35.3856 24.802 35.3673 24.8712 35.3517 24.9357C35.2938 25.0605 35.2476 25.1763 35.2131 25.2831C35.1986 25.3434 35.1892 25.3899 35.1847 25.4227C35.1502 25.594 35.1185 25.705 35.0896 25.7558C35.0595 25.871 35.0178 25.9577 34.9643 26.0159C34.9109 26.074 34.8503 26.1031 34.7824 26.1031C34.6989 26.1031 34.6282 26.0703 34.5703 26.0048Z" fill="#032435"/>
<path d="M36.2728 26.0493C36.117 26.0726 35.9756 26.0842 35.8487 26.0842C35.7608 26.0842 35.694 26.0758 35.6484 26.0589C35.6016 26.043 35.5515 26.0166 35.4981 25.9796C35.4447 25.9468 35.418 25.8886 35.418 25.8051C35.418 25.6803 35.4909 25.5487 35.6367 25.4101C35.8226 25.1923 36.0057 25.0141 36.186 24.8756C36.2294 24.8428 36.2839 24.8053 36.3496 24.763C36.4153 24.7217 36.4993 24.6662 36.6017 24.5964L36.8956 24.4093C36.929 24.3818 37.0581 24.2893 37.2829 24.1317C37.2685 24.1317 37.2111 24.1248 37.111 24.1111C37.0108 24.0973 36.9073 24.0947 36.8004 24.1031C36.698 24.1031 36.6284 24.1021 36.5917 24.1C36.555 24.0979 36.5171 24.092 36.4782 24.0825H36.368C36.3246 24.0825 36.2517 24.0482 36.1493 23.9794C36.0469 23.9096 35.9929 23.8515 35.9873 23.805L36.1059 23.6797C36.1203 23.6701 36.1398 23.6574 36.1643 23.6416C36.1877 23.6257 36.2071 23.6178 36.2227 23.6178C36.2372 23.6178 36.2494 23.6225 36.2595 23.6321L36.8004 23.6035C37.0831 23.6077 37.2902 23.6157 37.4215 23.6273C37.5529 23.6389 37.6503 23.6574 37.7137 23.6828C37.7771 23.7082 37.8456 23.751 37.9191 23.8113C37.968 23.8578 38.007 23.9112 38.0359 23.9715C38.0649 24.0318 38.0793 24.0873 38.0793 24.138C38.0793 24.2036 38.0621 24.2522 38.0276 24.284C38.0231 24.2893 38.0087 24.3056 37.9842 24.3331C37.9597 24.3606 37.9402 24.3744 37.9257 24.3744L37.5751 24.5901C37.5261 24.6229 37.4532 24.6668 37.3564 24.7217C37.2295 24.7958 37.156 24.8444 37.136 24.8677C37.0926 24.8867 37.0497 24.91 37.0074 24.9375C36.9663 24.965 36.9334 24.9903 36.9089 25.0136C36.8845 25.0411 36.8483 25.077 36.8004 25.1215C36.7514 25.1659 36.7002 25.2039 36.6468 25.2357C36.5733 25.2959 36.5049 25.3551 36.4414 25.4133C36.378 25.4715 36.3368 25.5122 36.3179 25.5354C36.3368 25.5301 36.3841 25.5217 36.4598 25.5101C36.5355 25.4984 36.6318 25.4894 36.7487 25.4831C36.8655 25.4757 36.9874 25.4746 37.1143 25.4799L37.6269 25.4656C37.7092 25.4604 37.8039 25.4577 37.9107 25.4577C38.0131 25.4577 38.0866 25.4672 38.1311 25.4863C38.1645 25.4958 38.1912 25.5338 38.2112 25.6005C38.2302 25.6681 38.2396 25.7321 38.2396 25.7924C38.2396 25.8294 38.2374 25.85 38.233 25.8542C38.2085 25.8542 38.1294 25.8611 37.9959 25.8749C37.8612 25.8886 37.7137 25.8981 37.5534 25.9034C37.4265 25.9129 37.1265 25.9452 36.6535 26.0002C36.58 26.0139 36.4531 26.0303 36.2728 26.0493Z" fill="#032435"/>
<path d="M39.1706 23.2195C39.1216 23.1867 39.0827 23.145 39.0537 23.0942C39.0237 23.0435 39.0064 22.9948 39.002 22.9483C38.9975 22.9018 39.0025 22.8743 39.017 22.8658C39.0459 22.833 39.0749 22.7886 39.1038 22.7326C39.1339 22.6776 39.1561 22.6385 39.1706 22.6152C39.2095 22.5317 39.2413 22.4714 39.2658 22.4344C39.2992 22.3699 39.3309 22.335 39.3609 22.3297C39.3999 22.3117 39.4316 22.3027 39.4561 22.3027C39.5195 22.3027 39.5886 22.3234 39.6631 22.3646C39.7388 22.4069 39.7961 22.4555 39.8351 22.5105C39.8696 22.5845 39.8869 22.6496 39.8869 22.7056C39.8869 22.8166 39.8306 22.9393 39.7182 23.0736C39.6693 23.1339 39.6108 23.1804 39.5429 23.2132C39.475 23.2449 39.4066 23.2608 39.3376 23.2608C39.2697 23.2608 39.214 23.247 39.1706 23.2195ZM38.3809 26.0048C38.3118 25.9403 38.2773 25.8245 38.2773 25.6574C38.2773 25.5697 38.2896 25.5025 38.3141 25.456C38.3141 25.4338 38.3191 25.4063 38.3291 25.3735C38.3391 25.3407 38.3441 25.3196 38.3441 25.3101C38.3386 25.2826 38.358 25.2064 38.4026 25.0817C38.4604 24.9569 38.5345 24.7644 38.6246 24.5043C38.7148 24.2452 38.7771 24.0602 38.8116 23.9491C38.8116 23.9259 38.8216 23.9063 38.8417 23.8905C38.8606 23.8735 38.8895 23.863 38.9285 23.8587C38.9819 23.8408 39.0504 23.863 39.1339 23.9254C39.2162 23.9877 39.2841 24.0581 39.3376 24.1363C39.3676 24.1649 39.3826 24.2019 39.3826 24.2473C39.3826 24.3171 39.3509 24.4144 39.2875 24.5392C39.263 24.5899 39.2396 24.6529 39.2173 24.7279C39.1962 24.802 39.1778 24.8712 39.1622 24.9357C39.1044 25.0605 39.0582 25.1763 39.0237 25.2831C39.0092 25.3434 38.9997 25.3899 38.9953 25.4227C38.9608 25.594 38.9291 25.705 38.9001 25.7558C38.8701 25.871 38.8283 25.9577 38.7749 26.0159C38.7215 26.074 38.6608 26.1031 38.5929 26.1031C38.5094 26.1031 38.4387 26.0703 38.3809 26.0048Z" fill="#032435"/>
<path d="M42.2922 25.9583C41.985 25.9488 41.8314 25.7844 41.8314 25.465C41.8314 25.3772 41.8386 25.2916 41.8531 25.2081C41.8631 25.1055 41.8681 25.0336 41.8681 24.9923V24.9574V24.8813C41.8536 24.7883 41.8219 24.7417 41.7729 24.7417C41.685 24.7417 41.523 24.8216 41.2871 24.9812C41.05 25.142 40.8023 25.3334 40.5441 25.5554C40.4662 25.6337 40.4005 25.7077 40.3471 25.7775C40.2981 25.8378 40.2614 25.8748 40.2369 25.8885C40.2124 25.9023 40.1734 25.9091 40.12 25.9091C40.0521 25.8996 39.9742 25.851 39.8862 25.7632C39.7983 25.6754 39.7399 25.5967 39.7109 25.5269C39.7109 25.3979 39.7354 25.2741 39.7844 25.1557C39.8323 25.0373 39.9052 24.8877 40.0031 24.7068C40.0465 24.5683 40.1027 24.4298 40.1718 24.2913C40.2452 24.1284 40.2975 24.0042 40.3287 23.9185C40.3599 23.8329 40.3805 23.744 40.3905 23.6521C40.3905 23.6468 40.3894 23.6441 40.3871 23.6441C40.3849 23.6441 40.3838 23.6441 40.3838 23.6441C40.3838 23.6261 40.391 23.6103 40.4055 23.5965C40.42 23.5817 40.4372 23.5743 40.4573 23.5743C40.4662 23.5606 40.4951 23.5537 40.5441 23.5537C40.671 23.5537 40.7806 23.5865 40.873 23.6521C40.9665 23.7166 41.0132 23.816 41.0132 23.9502C41.0132 24.02 40.9993 24.0861 40.9715 24.1485C40.9448 24.2109 40.8953 24.314 40.8229 24.4578L40.7411 24.6101C40.7266 24.6376 40.7049 24.6783 40.676 24.7322C40.647 24.7851 40.6326 24.8184 40.6326 24.8321C40.7539 24.7539 40.8975 24.6497 41.0633 24.5197C41.3071 24.3346 41.5069 24.1913 41.6627 24.0898C41.8186 23.9873 41.9332 23.936 42.0067 23.936C42.0701 23.936 42.1592 23.9698 42.2738 24.0375C42.3885 24.1041 42.4558 24.1654 42.4758 24.2215C42.4758 24.2532 42.4719 24.3018 42.4641 24.3674C42.4564 24.4319 42.4502 24.4895 42.4458 24.5403L42.4525 24.756C42.458 24.793 42.4608 24.8485 42.4608 24.9226C42.4608 25.0706 42.4508 25.1747 42.4308 25.235C42.4363 25.2403 42.4413 25.2472 42.4458 25.2556C42.4502 25.2652 42.4525 25.2726 42.4525 25.2778L42.4458 25.2905C42.4502 25.3371 42.4769 25.4111 42.5259 25.5126C42.5749 25.6152 42.5994 25.6712 42.5994 25.6807C42.5994 25.7315 42.5638 25.7881 42.4925 25.8504C42.4224 25.9128 42.3556 25.9488 42.2922 25.9583Z" fill="#032435"/>
<path d="M45.494 24.0619C45.514 24.0989 45.524 24.1455 45.524 24.2015C45.524 24.3072 45.4873 24.4066 45.4138 24.4997C45.3993 24.523 45.3726 24.5589 45.3337 24.6075C45.2947 24.6562 45.2608 24.7059 45.2318 24.7566C45.2018 24.8074 45.1795 24.8656 45.165 24.9311C45.1506 25.0189 45.1227 25.1241 45.0816 25.2468C45.0404 25.3694 45.0125 25.4514 44.9981 25.4926C44.9591 25.5899 44.9151 25.72 44.8662 25.8828L44.7493 26.3127C44.6413 26.6648 44.5167 26.9371 44.3753 27.1295C44.2339 27.322 44.1026 27.4504 43.9813 27.5149C43.9178 27.5382 43.8566 27.5498 43.7976 27.5498C43.6908 27.5498 43.58 27.516 43.4654 27.4483C43.3507 27.3817 43.2522 27.2902 43.1698 27.1739C43.1153 27.1052 43.0468 26.9746 42.9645 26.7821C42.8821 26.5897 42.8554 26.4866 42.8843 26.4729C42.9033 26.4083 42.9739 26.3761 43.0964 26.3761C43.1543 26.3761 43.2077 26.384 43.2567 26.3999C43.3056 26.4157 43.3323 26.4353 43.3368 26.4586C43.3813 26.5791 43.4353 26.6716 43.4988 26.7362C43.5377 26.7964 43.58 26.8429 43.6256 26.8757C43.6724 26.9085 43.7175 26.9249 43.7609 26.9249C43.7909 26.9249 43.8104 26.9201 43.8193 26.9106C43.8984 26.8546 43.9585 26.7874 43.9996 26.7092C44.0408 26.6299 44.0981 26.484 44.1716 26.2714C44.2829 25.9013 44.3703 25.6375 44.4337 25.4799C44.4482 25.4281 44.4727 25.37 44.5072 25.3055L44.3753 25.4022C44.3274 25.4392 44.274 25.4778 44.215 25.518C44.156 25.5571 44.0926 25.5904 44.0247 25.6179C43.9902 25.6602 43.905 25.6814 43.7692 25.6814C43.6668 25.6814 43.5694 25.6671 43.477 25.6385C43.3836 25.5931 43.314 25.5402 43.2683 25.4799C43.2216 25.4197 43.1737 25.3292 43.1248 25.2087C43.1058 25.1717 43.0964 25.1135 43.0964 25.0342C43.0964 24.8354 43.1448 24.6224 43.2416 24.395C43.3351 24.2142 43.4815 24.0223 43.6807 23.8192C43.8811 23.6152 44.0542 23.4925 44.2 23.4513C44.3169 23.3952 44.4388 23.3672 44.5656 23.3672C44.6191 23.3672 44.658 23.3719 44.6825 23.3815C44.7604 23.391 44.8217 23.4068 44.8662 23.429C44.9096 23.4523 44.9825 23.5057 45.0849 23.5892C45.3186 23.8113 45.455 23.9689 45.494 24.0619ZM44.5005 24.7154C44.5885 24.5991 44.648 24.4949 44.6792 24.4029C44.7115 24.3099 44.7226 24.2078 44.7126 24.0968C44.707 23.9805 44.653 23.9223 44.5506 23.9223C44.4482 23.9223 44.3597 23.9504 44.2851 24.0064C44.2095 24.0624 44.1104 24.1618 43.988 24.3046C43.9145 24.3977 43.8538 24.5092 43.806 24.6393C43.7614 24.7545 43.7392 24.8539 43.7392 24.9375C43.7392 25.039 43.7687 25.1014 43.8277 25.1246C43.9835 25.1204 44.1054 25.095 44.1933 25.0485C44.2813 25.002 44.3837 24.8909 44.5005 24.7154Z" fill="#032435"/>
<path d="M47.6589 26.2972C47.4931 26.2232 47.4102 26.1121 47.4102 25.9641C47.4102 25.9176 47.4174 25.8716 47.4319 25.8261C47.4708 25.659 47.5426 25.42 47.6472 25.1092C47.753 24.7993 47.847 24.5656 47.9294 24.4081C47.9639 24.3531 47.9906 24.2955 48.0096 24.2352C48.0296 24.1749 48.0418 24.1353 48.0463 24.1162C48.0708 24.0327 48.0852 23.9841 48.0897 23.9703L48.083 23.9005C48.083 23.8826 48.088 23.864 48.098 23.845C48.1069 23.827 48.1236 23.8064 48.1481 23.7832C48.2171 23.7271 48.2906 23.6182 48.3685 23.4564L48.6457 22.6998L48.7342 22.4635C48.7386 22.4445 48.7481 22.4117 48.7625 22.3651C48.777 22.3197 48.7843 22.2874 48.7843 22.2684C48.7843 22.2504 48.7798 22.2414 48.7709 22.2414C48.7319 22.2499 48.654 22.2568 48.5372 22.262C48.4782 22.2705 48.4342 22.2763 48.4053 22.2795C48.3752 22.2816 48.3529 22.2848 48.3385 22.289H48.2884C48.1949 22.289 48.1481 22.2568 48.1481 22.1923C48.1637 22.1087 48.1943 22.0299 48.24 21.9559C48.2867 21.8819 48.344 21.8422 48.4119 21.837L48.6974 21.7751C48.7408 21.7656 48.8015 21.7608 48.8794 21.7608C48.9484 21.7608 49.0191 21.7677 49.0915 21.7814C49.1505 21.7444 49.1822 21.7122 49.1866 21.6847C49.2067 21.6064 49.2506 21.5441 49.3185 21.4975C49.3875 21.451 49.4582 21.4277 49.5306 21.4277C49.5896 21.4277 49.6385 21.4431 49.6775 21.4737C49.7165 21.5033 49.7359 21.5483 49.7359 21.6086C49.7359 21.636 49.7332 21.6567 49.7276 21.6704C49.7276 21.6757 49.7276 21.6842 49.7276 21.6958C49.7276 21.7074 49.7426 21.7132 49.7727 21.7132C49.8216 21.7132 49.9652 21.6873 50.2034 21.6355C50.2424 21.6313 50.3097 21.626 50.4055 21.6197C50.5001 21.6123 50.5791 21.6086 50.6425 21.6086C50.7349 21.6086 50.8056 21.6154 50.8546 21.6292C50.898 21.6197 50.937 21.6149 50.9715 21.6149C51.006 21.6149 51.0355 21.6128 51.0599 21.6086C51.1423 21.6086 51.1935 21.6017 51.2136 21.5879C51.257 21.5975 51.3065 21.6054 51.3622 21.6117C51.4189 21.6191 51.4595 21.6271 51.484 21.6355C51.5085 21.645 51.5302 21.6567 51.5491 21.6704C51.5636 21.6894 51.5709 21.7058 51.5709 21.7196C51.5709 21.7333 51.5686 21.7428 51.5642 21.7481L51.5491 21.7402C51.5536 21.7402 51.5619 21.7439 51.5742 21.7513C51.5864 21.7577 51.6003 21.7677 51.6159 21.7814C51.6549 21.8005 51.6744 21.847 51.6744 21.921C51.6744 21.9771 51.6644 22.0326 51.6443 22.0876C51.6399 22.1151 51.6287 22.1346 51.6109 22.1463C51.5942 22.1579 51.5542 22.1653 51.4907 22.1685C51.4273 22.1706 51.3443 22.169 51.2419 22.1637C51.0572 22.1404 50.9036 22.1288 50.7811 22.1288C50.6108 22.1288 50.3476 22.1521 49.9914 22.1986C49.9035 22.2039 49.8216 22.2155 49.746 22.2335C49.6714 22.2525 49.6241 22.2642 49.604 22.2684C49.5796 22.2684 49.5428 22.3033 49.4938 22.3731C49.446 22.4418 49.402 22.5296 49.3619 22.6364C49.333 22.6787 49.2428 22.8801 49.0915 23.2407C48.9746 23.5008 48.9162 23.6309 48.9162 23.6309C48.9751 23.6489 49.0876 23.6578 49.2534 23.6578C49.4727 23.6578 49.7922 23.6393 50.2118 23.6023C50.401 23.5653 50.5301 23.5516 50.5991 23.5611C50.6425 23.5653 50.6804 23.5939 50.7127 23.6467C50.7438 23.7007 50.7594 23.7599 50.7594 23.8244C50.7594 23.8709 50.75 23.9127 50.731 23.9497C50.711 23.9867 50.6837 24.0147 50.6492 24.0338C50.5468 24.093 50.3348 24.139 50.0131 24.1718C49.7994 24.1908 49.5044 24.2003 49.1282 24.2003C48.929 24.2003 48.8099 24.1955 48.7709 24.186C48.7609 24.1903 48.7475 24.204 48.7308 24.2273C48.713 24.2505 48.7041 24.2786 48.7041 24.3113C48.6162 24.4636 48.4932 24.7343 48.3351 25.1234C48.1771 25.5126 48.098 25.7489 48.098 25.8324C48.0635 25.916 48.0368 26.0112 48.0179 26.118C48.0123 26.1359 48.0045 26.1613 47.9945 26.1941C47.9856 26.2258 47.9762 26.2464 47.9661 26.2559C47.9517 26.3257 47.9027 26.3606 47.8192 26.3606C47.7513 26.3606 47.6979 26.3395 47.6589 26.2972Z" fill="#032435"/>
<path d="M52.6402 26.1102C52.5957 26.069 52.5601 26.0145 52.5334 25.9468C52.5067 25.8802 52.4738 25.7771 52.4349 25.6375C52.4248 25.61 52.4198 25.5698 52.4198 25.517C52.4198 25.463 52.4198 25.4244 52.4198 25.4012C52.4009 25.4435 52.377 25.489 52.348 25.5376C52.318 25.5862 52.2885 25.6195 52.2596 25.6375C52.1471 25.7443 52.0347 25.8231 51.9223 25.8739C51.7665 25.9669 51.6329 26.0134 51.5216 26.0134C51.3847 26.0134 51.2672 25.9532 51.1693 25.8326C51.0135 25.7121 50.9355 25.5683 50.9355 25.4012C50.9355 25.379 50.9406 25.3351 50.9506 25.2695C50.9606 25.0982 50.9862 24.9338 51.0274 24.7762C51.0686 24.6187 51.1476 24.4172 51.2645 24.1719L51.4849 23.7548L51.6017 23.5406C51.6262 23.5311 51.6652 23.5264 51.7186 23.5264C51.7965 23.5264 51.8694 23.5401 51.9373 23.5676C52.0063 23.5951 52.0431 23.6321 52.0475 23.6786C52.062 23.6977 52.0692 23.7326 52.0692 23.7833C52.0692 23.9314 52.0035 24.128 51.8722 24.3734L51.8138 24.505C51.7258 24.7049 51.6624 24.8603 51.6234 24.9713C51.5845 25.0824 51.565 25.1749 51.565 25.2489C51.565 25.3229 51.5939 25.3716 51.6518 25.3948C51.6763 25.4086 51.7058 25.4155 51.7403 25.4155C51.8383 25.4155 51.9562 25.3436 52.0943 25.1997C52.2334 25.057 52.3764 24.8164 52.5234 24.4781C52.5913 24.3205 52.6324 24.1582 52.6469 23.9911C52.6369 23.9403 52.6514 23.8848 52.6903 23.8246C52.7293 23.7643 52.7805 23.7156 52.8439 23.6786C52.864 23.6511 52.8912 23.6295 52.9257 23.6136C52.9591 23.5967 52.9808 23.5977 52.9909 23.6168L53.1077 23.6088C53.1222 23.6046 53.1456 23.6258 53.1778 23.6723C53.209 23.7188 53.2318 23.7463 53.2463 23.7548C53.2953 23.7918 53.3198 23.8663 53.3198 23.9784C53.3198 24.1307 53.2613 24.3411 53.1445 24.6097C53.0521 24.7948 52.9897 24.937 52.9575 25.0364C52.9263 25.1368 52.9079 25.2331 52.9024 25.3251C52.9024 25.4223 52.9113 25.4979 52.9291 25.5519C52.9458 25.6047 52.9881 25.6592 53.056 25.7152C53.1339 25.766 53.1656 25.886 53.1511 26.0753C53.1422 26.1081 53.1155 26.1335 53.071 26.1514C53.0276 26.1705 52.9742 26.18 52.9107 26.18C52.8027 26.18 52.7126 26.1567 52.6402 26.1102Z" fill="#032435"/>
<path d="M54.1395 26.1305C54.0616 26.1168 53.9737 26.0581 53.8757 25.9545C53.7778 25.8498 53.7166 25.7604 53.6921 25.6864C53.6921 25.6769 53.6876 25.6663 53.6787 25.6547C53.6687 25.6431 53.6615 25.6351 53.657 25.6309C53.637 25.6172 53.627 25.5405 53.627 25.4009C53.627 25.2899 53.6331 25.1741 53.6453 25.0536C53.6576 24.9341 53.6731 24.8368 53.6921 24.7617L53.824 24.3937L53.9275 24.1161L54.1245 23.7133L53.8323 23.6371C53.7978 23.6329 53.7694 23.6165 53.7472 23.588C53.726 23.5605 53.7154 23.5351 53.7154 23.5118C53.7154 23.4748 53.736 23.4214 53.7772 23.3516C53.8184 23.2829 53.8512 23.2485 53.8757 23.2485C53.8902 23.2528 53.9292 23.2549 53.9926 23.2549C54.1384 23.2549 54.2481 23.248 54.3215 23.2343C54.3705 23.2152 54.4044 23.1782 54.4234 23.1232C54.4478 23.0725 54.4723 23.0296 54.4968 22.9947C54.5213 22.9599 54.5458 22.9213 54.5703 22.879C54.5848 22.8515 54.6081 22.8086 54.6404 22.7505C54.6716 22.6934 54.7117 22.6278 54.7606 22.5538C54.7706 22.539 54.7923 22.5052 54.8257 22.4523C54.8602 22.3994 54.902 22.3545 54.951 22.3175C54.9799 22.2942 55.0189 22.2741 55.0678 22.2572C55.1168 22.2413 55.1652 22.2334 55.2131 22.2334C55.301 22.2334 55.3717 22.2567 55.4251 22.3032C55.4697 22.3677 55.4919 22.4163 55.4919 22.4491C55.4919 22.4861 55.4724 22.5348 55.4335 22.595C55.4045 22.65 55.3556 22.724 55.2866 22.8171C55.2287 22.9006 55.1847 22.9678 55.1547 23.0185C55.1068 23.0788 55.0829 23.1253 55.0829 23.1581C55.0829 23.1898 55.1146 23.2057 55.178 23.2057C55.2459 23.2057 55.36 23.192 55.5203 23.1645C55.5448 23.1602 55.5793 23.1581 55.6238 23.1581C55.7407 23.1581 55.8236 23.1904 55.8726 23.2549C55.9205 23.3194 55.9444 23.4003 55.9444 23.4976C55.9444 23.5631 55.9216 23.6028 55.8759 23.6165C55.8292 23.6303 55.7257 23.6371 55.5654 23.6371C55.4096 23.6604 55.2487 23.672 55.0829 23.672C55.0528 23.672 55.02 23.6731 54.9844 23.6752C54.9476 23.6773 54.9098 23.6831 54.8708 23.6926C54.8319 23.7022 54.8035 23.7159 54.7857 23.7339C54.769 23.7529 54.7506 23.7831 54.7306 23.8243C54.7161 23.838 54.6822 23.8914 54.6287 23.9845C54.5608 24.1188 54.5169 24.1997 54.4968 24.2272C54.3699 24.5793 54.2725 24.9431 54.2046 25.3184C54.2002 25.3459 54.198 25.3808 54.198 25.4231C54.198 25.4823 54.2186 25.5252 54.2597 25.5516C54.3009 25.577 54.3827 25.5897 54.5052 25.5897C54.641 25.5897 54.7701 25.5733 54.8925 25.5405C55.0383 25.4802 55.148 25.4295 55.2214 25.3882C55.2649 25.365 55.3049 25.3428 55.3417 25.3216C55.3784 25.3005 55.404 25.2857 55.4185 25.2772C55.4385 25.2402 55.4713 25.2444 55.517 25.2899C55.5637 25.3364 55.5993 25.3898 55.6238 25.4501C55.6238 25.5336 55.6066 25.6087 55.5721 25.6753C55.5376 25.743 55.4524 25.8138 55.3166 25.8879C55.1608 25.9809 54.9999 26.0481 54.8341 26.0893C54.6682 26.1305 54.5119 26.1512 54.3649 26.1512C54.2826 26.1512 54.2074 26.1443 54.1395 26.1305Z" fill="#032435"/>
<path d="M57.7655 26.1102C57.7221 26.069 57.687 26.0145 57.6603 25.9468C57.6325 25.8802 57.5991 25.7771 57.5602 25.6375C57.5512 25.61 57.5468 25.5698 57.5468 25.517C57.5468 25.463 57.5468 25.4244 57.5468 25.4012C57.5268 25.4435 57.5023 25.489 57.4733 25.5376C57.4444 25.5862 57.4149 25.6195 57.3848 25.6375C57.2735 25.7443 57.1617 25.8231 57.0492 25.8739C56.8934 25.9669 56.7593 26.0134 56.6469 26.0134C56.51 26.0134 56.3931 25.9532 56.2962 25.8326C56.1404 25.7121 56.0625 25.5683 56.0625 25.4012C56.0625 25.379 56.067 25.3351 56.0759 25.2695C56.0859 25.0982 56.1115 24.9338 56.1527 24.7762C56.195 24.6187 56.2745 24.4172 56.3914 24.1719L56.6101 23.7548L56.727 23.5406C56.7515 23.5311 56.7905 23.5264 56.8439 23.5264C56.9218 23.5264 56.9953 23.5401 57.0643 23.5676C57.1322 23.5951 57.1683 23.6321 57.1728 23.6786C57.1873 23.6977 57.1945 23.7326 57.1945 23.7833C57.1945 23.9314 57.1288 24.128 56.9975 24.3734L56.9391 24.505C56.8511 24.7049 56.7877 24.8603 56.7487 24.9713C56.7098 25.0824 56.6903 25.1749 56.6903 25.2489C56.6903 25.3229 56.7198 25.3716 56.7788 25.3948C56.8033 25.4086 56.8322 25.4155 56.8656 25.4155C56.9635 25.4155 57.0821 25.3436 57.2212 25.1997C57.3604 25.057 57.5028 24.8164 57.6486 24.4781C57.7165 24.3205 57.7577 24.1582 57.7722 23.9911C57.7633 23.9403 57.7783 23.8848 57.8173 23.8246C57.8562 23.7643 57.9074 23.7156 57.9709 23.6786C57.9898 23.6511 58.0165 23.6295 58.051 23.6136C58.0855 23.5967 58.1072 23.5977 58.1161 23.6168L58.233 23.6088C58.2486 23.6046 58.272 23.6258 58.3031 23.6723C58.3343 23.7188 58.3577 23.7463 58.3733 23.7548C58.4211 23.7918 58.4451 23.8663 58.4451 23.9784C58.4451 24.1307 58.3866 24.3411 58.2697 24.6097C58.1774 24.7948 58.1156 24.937 58.0844 25.0364C58.0521 25.1368 58.0338 25.2331 58.0293 25.3251C58.0293 25.4223 58.0377 25.4979 58.0544 25.5519C58.0711 25.6047 58.1139 25.6592 58.1829 25.7152C58.2608 25.766 58.2926 25.886 58.2781 26.0753C58.2681 26.1081 58.2414 26.1335 58.1979 26.1514C58.1534 26.1705 58.0994 26.18 58.036 26.18C57.9291 26.18 57.839 26.1567 57.7655 26.1102Z" fill="#032435"/>
<path d="M58.8845 25.937C58.8166 25.8852 58.7632 25.8365 58.7243 25.791C58.6853 25.7445 58.673 25.6795 58.6875 25.596C58.702 25.4384 58.7387 25.2555 58.7977 25.0471L58.8344 24.9076C58.8489 24.7828 58.9257 24.5364 59.0649 24.1684C59.2029 23.8004 59.3186 23.5514 59.4121 23.4214C59.46 23.3748 59.5429 23.3516 59.6609 23.3516C59.7577 23.3516 59.8256 23.3701 59.8646 23.4071C59.9036 23.4356 59.923 23.4822 59.923 23.5467C59.923 23.6535 59.8524 23.8412 59.711 24.1097L59.6375 24.2557C59.6041 24.3159 59.5763 24.3715 59.5541 24.4222C59.5318 24.473 59.5329 24.4962 59.5574 24.492C59.6108 24.4032 59.7416 24.2826 59.9498 24.1304C60.1568 23.977 60.2993 23.8819 60.3772 23.8449C60.4106 23.8269 60.4545 23.8084 60.5091 23.7893C60.5625 23.7714 60.5987 23.7576 60.6176 23.7481C60.7055 23.7069 60.8057 23.6862 60.9181 23.6862C60.9961 23.6862 61.0628 23.6963 61.1185 23.7164C61.1753 23.7375 61.2131 23.7687 61.232 23.81C61.2376 23.8427 61.2509 23.8686 61.2721 23.8877C61.2944 23.9057 61.3105 23.9168 61.3205 23.921C61.335 23.921 61.3444 23.9268 61.3489 23.9384C61.3545 23.9501 61.3572 23.9585 61.3572 23.9638C61.3572 24.0008 61.3227 24.0484 61.2537 24.1066C61.1858 24.1637 61.1151 24.1949 61.0417 24.2001C60.9883 24.2044 60.9326 24.216 60.8747 24.235C60.8157 24.253 60.7567 24.2758 60.6977 24.3032L60.5091 24.4079C60.3432 24.4872 60.203 24.565 60.0883 24.6411C59.9737 24.7172 59.8579 24.8156 59.7411 24.9361C59.7166 24.9594 59.6809 24.9916 59.6342 25.0329C59.5886 25.0752 59.5485 25.1238 59.514 25.1788C59.4795 25.2116 59.4439 25.2962 59.4071 25.4326C59.3715 25.569 59.3537 25.6536 59.3537 25.6864C59.3481 25.7001 59.3381 25.7281 59.3236 25.7704C59.3092 25.8117 59.2875 25.8487 59.2585 25.8815C59.214 25.9322 59.1773 25.9692 59.1483 25.9925C59.1194 26.0157 59.0877 26.0274 59.0532 26.0274C59.0042 26.0274 58.948 25.9972 58.8845 25.937Z" fill="#032435"/>
<path d="M61.5173 25.9796C61.5028 25.9521 61.4617 25.9151 61.3938 25.8685C61.3247 25.822 61.2902 25.794 61.2902 25.7845C61.2902 25.7665 61.2797 25.7401 61.2585 25.7052C61.2363 25.6703 61.2151 25.6391 61.1951 25.6116C61.1561 25.5746 61.1828 25.454 61.2752 25.2499C61.3687 25.0459 61.4934 24.8053 61.6492 24.5282C61.6781 24.4997 61.716 24.4511 61.7627 24.3823C61.8084 24.3125 61.839 24.2729 61.8546 24.2634C61.8546 24.2454 61.8618 24.2279 61.8763 24.211C61.8907 24.1952 61.9074 24.1872 61.9264 24.1872L61.9848 24.0762C62.0048 24.0339 62.1 23.934 62.2703 23.7764C62.4406 23.6199 62.5747 23.5136 62.6727 23.4576C62.7651 23.3973 62.8652 23.3672 62.9732 23.3672C63.0901 23.3672 63.1897 23.3994 63.2721 23.4639L63.4691 23.6241C63.616 23.7405 63.6989 23.8076 63.7179 23.8256L63.9883 24.0556L63.8648 24.4029C63.8214 24.5277 63.7997 24.6456 63.7997 24.7566C63.7997 24.9332 63.8509 25.0977 63.9533 25.2499C63.9767 25.3007 64.0095 25.3403 64.0518 25.3689C64.093 25.3964 64.1475 25.4149 64.2154 25.4244C64.3234 25.4424 64.3774 25.4931 64.3774 25.5767C64.3774 25.6782 64.3579 25.7543 64.3189 25.8051C64.28 25.8569 64.2332 25.8897 64.1787 25.9034C64.1008 25.9129 64.0473 25.9177 64.0184 25.9177C63.877 25.9177 63.7479 25.8828 63.631 25.813C63.5142 25.7432 63.4118 25.6248 63.3238 25.4577C63.3038 25.4302 63.2782 25.3795 63.247 25.3055C63.2148 25.2314 63.1964 25.1807 63.1919 25.1532C63.1574 25.1997 63.1012 25.26 63.0233 25.334C62.5213 25.8151 62.1145 26.0557 61.8028 26.0557C61.6948 26.0557 61.5997 26.0303 61.5173 25.9796ZM61.9197 25.4022C61.9976 25.4117 62.1484 25.3287 62.3722 25.1532C62.3966 25.1341 62.4239 25.1119 62.454 25.0866C62.4829 25.0612 62.5146 25.0347 62.5491 25.0073C62.6849 24.9005 62.7907 24.8111 62.8664 24.7392C62.942 24.6673 63.0188 24.5806 63.0968 24.4791L63.2571 24.2285C63.2092 24.1269 63.1658 24.0587 63.1268 24.0238C63.0879 23.989 63.0489 23.9715 63.0099 23.9715C62.912 23.9715 62.7901 24.054 62.6443 24.2189C62.4974 24.3828 62.3215 24.6313 62.1167 24.9644C62.0633 25.048 62.0193 25.1352 61.9848 25.2261C61.9514 25.316 61.9297 25.3747 61.9197 25.4022Z" fill="#032435"/>
</g>
<defs>
<clipPath id="clip0_291_1489">
<rect width="50" height="38" fill="white" transform="translate(15 8.5)"/>
</clipPath>
</defs>
</svg>
