<svg width="250" height="225" viewBox="0 0 250 225" fill="none" xmlns="http://www.w3.org/2000/svg">
<rect width="250" height="224" transform="translate(0 0.75)" fill="#F3F8F4"/>
<path d="M144.999 139.417C144.999 134.112 142.892 129.025 139.141 125.274C135.391 121.524 130.304 119.417 124.999 119.417M124.999 119.417C119.695 119.417 114.608 121.524 110.857 125.274C107.106 129.025 104.999 134.112 104.999 139.417M124.999 119.417C132.363 119.417 138.333 113.447 138.333 106.083C138.333 98.7194 132.363 92.7498 124.999 92.7498C117.636 92.7498 111.666 98.7194 111.666 106.083C111.666 113.447 117.636 119.417 124.999 119.417ZM158.333 112.75C158.333 131.159 143.409 146.083 124.999 146.083C106.59 146.083 91.666 131.159 91.666 112.75C91.666 94.3403 106.59 79.4165 124.999 79.4165C143.409 79.4165 158.333 94.3403 158.333 112.75Z" stroke="#28723D" stroke-width="6" stroke-linecap="round" stroke-linejoin="round"/>
</svg>
