<svg width="145" height="157" viewBox="0 0 145 157" fill="none" xmlns="http://www.w3.org/2000/svg">
<path d="M95.872 97.4667L95.8665 121.933L95.872 122.934V123.121L95.861 157L71.7638 137.152L48.0957 156.994L48.1005 123.565V121.43L48.106 57.5405H70.9718L95.8768 57.546L95.872 97.4667Z" fill="#EBA505"/>
<path d="M93.0446 151.011L71.7503 133.472L50.9277 150.931L50.9381 60.3669L73.3686 60.3711L92.6534 91.7413L93.0446 151.011ZM71.7434 132.081L91.9592 148.731L91.5853 92.0463L72.7709 61.4413L52.0089 61.4371L51.9993 148.637L71.7434 132.081Z" fill="#E9F1EB"/>
<path d="M108.462 109.406C128.43 89.4384 128.43 57.065 108.462 37.0976C88.4949 17.1303 56.1215 17.1303 36.1541 37.0976C16.1867 57.065 16.1867 89.4384 36.1541 109.406C56.1214 129.373 88.4949 129.373 108.462 109.406Z" fill="#005919"/>
<path d="M104.575 105.519C122.396 87.6985 122.396 58.805 104.575 40.984C86.7536 23.1631 57.8601 23.1631 40.0392 40.984C22.2182 58.805 22.2182 87.6985 40.0392 105.519C57.8601 123.34 86.7536 123.34 104.575 105.519Z" fill="#EBA505"/>
<path d="M103.368 104.312C120.522 87.1578 120.522 59.3457 103.368 42.1917C86.2136 25.0377 58.4015 25.0377 41.2475 42.1917C24.0936 59.3457 24.0936 87.1578 41.2475 104.312C58.4015 121.466 86.2136 121.466 103.368 104.312Z" fill="#005919"/>
<path d="M102.131 103.072C118.6 86.6027 118.6 59.9007 102.131 43.4315C85.6614 26.9622 58.9594 26.9622 42.4902 43.4315C26.0209 59.9007 26.0209 86.6027 42.4902 103.072C58.9594 119.541 85.6614 119.541 102.131 103.072Z" fill="#005919"/>
<path d="M114.484 73.7418C114.484 89.5867 105.8 103.445 92.9373 110.798C104.72 103.312 112.559 90.1411 112.559 75.1743C112.559 51.9214 93.6419 33.0044 70.389 33.0044C55.4222 33.0044 42.2514 40.8428 34.7656 52.6259C42.1171 39.763 55.9766 31.0796 71.8214 31.0796C95.3429 31.0803 114.484 50.2204 114.484 73.7418Z" fill="#0D8F31"/>
<path d="M94.8617 108.873C88.338 113.019 80.6001 115.425 72.314 115.425C49.0612 115.425 30.1387 96.5027 30.1387 73.2498C30.1387 64.9638 32.5442 57.2259 36.6907 50.7021C33.1213 56.9291 31.0842 64.1415 31.0842 71.8174C31.0842 95.3388 50.225 114.48 73.7465 114.48C81.4223 114.479 88.6341 112.443 94.8617 108.873Z" fill="#0D8F31"/>
<path d="M76.7323 48.0369H67.9043V48.5988H76.7323V48.0369Z" fill="white"/>
<path d="M78.2936 42.3628C76.762 43.1265 75.6346 44.2546 74.9598 45.4928C74.4701 43.6906 73.6217 41.9028 72.4013 40.2465C72.3586 40.188 72.2684 40.188 72.225 40.2465C71.004 41.9083 70.1563 43.7016 69.6694 45.5093C68.9952 44.2656 67.8658 43.13 66.3273 42.3628C66.2433 42.3208 66.1483 42.4035 66.1772 42.493C66.7474 44.2477 67.3176 46.0017 67.8871 47.7565C67.8926 47.7544 67.8982 47.7537 67.9037 47.7516V47.7565H76.7317C76.7317 47.7565 76.7324 47.7558 76.7331 47.7565C77.3033 46.0017 77.8735 44.247 78.443 42.493C78.4726 42.4035 78.3776 42.3208 78.2936 42.3628Z" fill="white"/>
<path d="M89.8 50.5759H54.8164V51.111H89.8V50.5759Z" fill="white"/>
<path d="M89.8 51.1196H54.8164V51.6547H89.8V51.1196Z" fill="#131925"/>
<path d="M56.1946 75.9312C54.9836 75.9312 53.7558 75.7967 52.5111 75.5276C51.2665 75.2585 50.1733 74.8632 49.2314 74.3418L51.2497 69.952C52.0066 70.3893 52.7971 70.7173 53.6212 70.9359C54.4622 71.1378 55.2527 71.2387 55.9927 71.2387C56.6655 71.2387 57.2121 71.1294 57.6326 70.9107C58.0699 70.6752 58.2885 70.3304 58.2885 69.8763C58.2885 69.4895 58.1288 69.1951 57.8092 68.9933C57.4896 68.7747 56.9514 68.6653 56.1946 68.6653H53.8483V65.0072L58.4147 60.3651L58.9445 62.3581H50.1396V57.8674H63.3091V61.5256L58.7427 66.1677L55.8918 64.553H57.456C59.6761 64.553 61.3665 65.0492 62.527 66.0415C63.6875 67.0339 64.2678 68.3121 64.2678 69.8763C64.2678 70.8855 63.9819 71.8526 63.41 72.7776C62.855 73.7027 61.9804 74.4596 60.7862 75.0482C59.6089 75.6369 58.0783 75.9312 56.1946 75.9312ZM73.609 75.9312C72.0448 75.9312 70.6572 75.5696 69.4462 74.8464C68.252 74.1232 67.3102 73.072 66.6206 71.6928C65.9478 70.3136 65.6114 68.6485 65.6114 66.6975C65.6114 64.7465 65.9478 63.0814 66.6206 61.7022C67.3102 60.323 68.252 59.2718 69.4462 58.5486C70.6572 57.8254 72.0448 57.4637 73.609 57.4637C75.1731 57.4637 76.5523 57.8254 77.7465 58.5486C78.9575 59.2718 79.8993 60.323 80.5721 61.7022C81.2617 63.0814 81.6065 64.7465 81.6065 66.6975C81.6065 68.6485 81.2617 70.3136 80.5721 71.6928C79.8993 73.072 78.9575 74.1232 77.7465 74.8464C76.5523 75.5696 75.1731 75.9312 73.609 75.9312ZM73.609 71.163C73.9958 71.163 74.3406 71.0284 74.6433 70.7593C74.9461 70.4902 75.1816 70.0277 75.3497 69.3718C75.5348 68.7158 75.6273 67.8244 75.6273 66.6975C75.6273 65.5538 75.5348 64.6624 75.3497 64.0232C75.1816 63.3673 74.9461 62.9048 74.6433 62.6356C74.3406 62.3665 73.9958 62.232 73.609 62.232C73.2221 62.232 72.8773 62.3665 72.5746 62.6356C72.2718 62.9048 72.028 63.3673 71.8429 64.0232C71.6747 64.6624 71.5907 65.5538 71.5907 66.6975C71.5907 67.8244 71.6747 68.7158 71.8429 69.3718C72.028 70.0277 72.2718 70.4902 72.5746 70.7593C72.8773 71.0284 73.2221 71.163 73.609 71.163ZM87.8981 72.8786V60.5164H92.4393V72.8786H87.8981ZM83.7354 68.8419V64.553H96.6021V68.8419H83.7354Z" fill="white"/>
<path d="M57.094 88.0842V85.2717L57.4578 86.2354L54.4289 81.2003H56.1204L58.4412 85.0651H57.4677L59.7984 81.2003H61.362L58.3331 86.2354L58.6871 85.2717V88.0842H57.094ZM63.9603 88.1629C63.3571 88.1629 62.8261 88.0449 62.3671 87.8089C61.9148 87.5729 61.564 87.2516 61.3149 86.8451C61.0658 86.4321 60.9412 85.9633 60.9412 85.4388C60.9412 84.9078 61.0625 84.439 61.3051 84.0326C61.5542 83.6195 61.8918 83.2983 62.318 83.0688C62.7441 82.8328 63.226 82.7148 63.7636 82.7148C64.2815 82.7148 64.747 82.8262 65.16 83.0491C65.5796 83.2655 65.9107 83.5802 66.1533 83.9932C66.3959 84.3997 66.5172 84.8881 66.5172 85.4585C66.5172 85.5175 66.5139 85.5863 66.5073 85.665C66.5008 85.7371 66.4942 85.806 66.4877 85.8715H62.1901V84.9766H65.6813L65.0912 85.2422C65.0912 84.9668 65.0355 84.7275 64.924 84.5243C64.8126 84.321 64.6585 84.1637 64.4618 84.0522C64.2651 83.9342 64.0357 83.8752 63.7734 83.8752C63.5112 83.8752 63.2784 83.9342 63.0752 84.0522C62.8785 84.1637 62.7245 84.3243 62.613 84.5341C62.5015 84.7373 62.4458 84.9799 62.4458 85.2618V85.4978C62.4458 85.7863 62.5081 86.042 62.6327 86.2649C62.7638 86.4813 62.9441 86.6484 63.1735 86.7665C63.4096 86.8779 63.6849 86.9336 63.9996 86.9336C64.2815 86.9336 64.5274 86.891 64.7372 86.8058C64.9535 86.7206 65.1502 86.5927 65.3272 86.4223L66.1435 87.3073C65.9009 87.5827 65.596 87.7958 65.2289 87.9466C64.8617 88.0908 64.4389 88.1629 63.9603 88.1629ZM70.6398 88.0842V87.0516L70.5414 86.8255V84.9766C70.5414 84.6488 70.4398 84.3931 70.2366 84.2096C70.0399 84.026 69.735 83.9342 69.322 83.9342C69.0401 83.9342 68.7614 83.9801 68.4861 84.0719C68.2173 84.1571 67.9878 84.2751 67.7977 84.4259L67.247 83.354C67.5354 83.1508 67.8829 82.9934 68.2894 82.882C68.6959 82.7705 69.1089 82.7148 69.5285 82.7148C70.3349 82.7148 70.961 82.9049 71.4068 83.2852C71.8526 83.6654 72.0755 84.2587 72.0755 85.0651V88.0842H70.6398ZM69.0269 88.1629C68.6139 88.1629 68.2599 88.0941 67.9649 87.9564C67.6698 87.8121 67.4436 87.6187 67.2863 87.3762C67.129 87.1336 67.0503 86.8615 67.0503 86.5599C67.0503 86.2452 67.1257 85.9699 67.2765 85.7339C67.4338 85.4978 67.6797 85.3143 68.014 85.1831C68.3484 85.0455 68.7844 84.9766 69.322 84.9766H70.7283V85.8715H69.4892C69.1286 85.8715 68.8794 85.9305 68.7418 86.0486C68.6106 86.1666 68.5451 86.3141 68.5451 86.4911C68.5451 86.6878 68.6205 86.8451 68.7713 86.9631C68.9286 87.0746 69.1417 87.1303 69.4105 87.1303C69.6662 87.1303 69.8956 87.0713 70.0989 86.9533C70.3021 86.8287 70.4496 86.6484 70.5414 86.4124L70.7774 87.1205C70.666 87.4614 70.4627 87.7204 70.1677 87.8974C69.8727 88.0744 69.4924 88.1629 69.0269 88.1629ZM73.464 88.0842V82.7934H74.9293V84.2882L74.7228 83.8555C74.8801 83.4818 75.1325 83.1999 75.48 83.0098C75.8275 82.8131 76.2504 82.7148 76.7486 82.7148V84.1309C76.6831 84.1243 76.624 84.1211 76.5716 84.1211C76.5192 84.1145 76.4634 84.1112 76.4044 84.1112C75.9848 84.1112 75.6439 84.2325 75.3817 84.4751C75.126 84.7111 74.9981 85.0815 74.9981 85.5863V88.0842H73.464ZM83.0018 88.1629C82.438 88.1629 81.9365 88.0449 81.4972 87.8089C81.0645 87.5729 80.7203 87.2516 80.4646 86.8451C80.2155 86.4321 80.0909 85.9633 80.0909 85.4388C80.0909 84.9078 80.2155 84.439 80.4646 84.0326C80.7203 83.6195 81.0645 83.2983 81.4972 83.0688C81.9365 82.8328 82.438 82.7148 83.0018 82.7148C83.5591 82.7148 84.0574 82.8328 84.4966 83.0688C84.9359 83.2983 85.2801 83.6162 85.5292 84.0227C85.7784 84.4292 85.9029 84.9012 85.9029 85.4388C85.9029 85.9633 85.7784 86.4321 85.5292 86.8451C85.2801 87.2516 84.9359 87.5729 84.4966 87.8089C84.0574 88.0449 83.5591 88.1629 83.0018 88.1629ZM83.0018 86.9041C83.2575 86.9041 83.487 86.8451 83.6902 86.7271C83.8935 86.6091 84.0541 86.4419 84.1721 86.2256C84.2901 86.0027 84.3491 85.7404 84.3491 85.4388C84.3491 85.1307 84.2901 84.8685 84.1721 84.6521C84.0541 84.4358 83.8935 84.2686 83.6902 84.1506C83.487 84.0326 83.2575 83.9735 83.0018 83.9735C82.7461 83.9735 82.5167 84.0326 82.3134 84.1506C82.1102 84.2686 81.9463 84.4358 81.8217 84.6521C81.7037 84.8685 81.6447 85.1307 81.6447 85.4388C81.6447 85.7404 81.7037 86.0027 81.8217 86.2256C81.9463 86.4419 82.1102 86.6091 82.3134 86.7271C82.5167 86.8451 82.7461 86.9041 83.0018 86.9041ZM87.1152 88.0842V82.6754C87.1152 82.0788 87.2922 81.6035 87.6463 81.2495C88.0003 80.8889 88.5051 80.7086 89.1607 80.7086C89.3836 80.7086 89.5967 80.7315 89.7999 80.7774C90.0097 80.8233 90.1867 80.8955 90.331 80.9938L89.9278 82.1051C89.8426 82.046 89.7475 82.0002 89.6426 81.9674C89.5377 81.9346 89.4262 81.9182 89.3082 81.9182C89.0853 81.9182 88.9116 81.9838 88.787 82.1149C88.669 82.2395 88.61 82.4296 88.61 82.6853V83.177L88.6493 83.8359V88.0842H87.1152ZM86.299 84.0916V82.9115H89.9671V84.0916H86.299ZM47.2012 95.9735H50.5153V97.2127H47.2012V95.9735ZM47.3192 98.8058H51.066V100.084H45.7359V93.2003H50.9382V94.4788H47.3192V98.8058ZM51.4991 100.084L53.8692 96.9766L53.8397 97.8224L51.568 94.7934H53.2889L54.7247 96.7701L54.0757 96.7898L55.5606 94.7934H57.1931L54.9116 97.7929V96.9668L57.2718 100.084H55.5311L54.0265 97.9797L54.6657 98.0682L53.1709 100.084H51.4991ZM61.1438 100.163C60.6979 100.163 60.3078 100.065 59.9735 99.8679C59.6391 99.6712 59.3769 99.3729 59.1868 98.973C59.0032 98.5665 58.9114 98.0551 58.9114 97.4388C58.9114 96.816 58.9999 96.3046 59.1769 95.9047C59.3539 95.5048 59.6096 95.2065 59.944 95.0098C60.2783 94.8131 60.6783 94.7148 61.1438 94.7148C61.642 94.7148 62.0878 94.8295 62.4812 95.059C62.8811 95.2819 63.1958 95.5966 63.4253 96.003C63.6613 96.4095 63.7793 96.8881 63.7793 97.4388C63.7793 97.9961 63.6613 98.478 63.4253 98.8845C63.1958 99.2909 62.8811 99.6056 62.4812 99.8285C62.0878 100.051 61.642 100.163 61.1438 100.163ZM58.0165 101.992V94.7934H59.4818V95.8752L59.4523 97.4487L59.5506 99.0123V101.992H58.0165ZM60.8782 98.9041C61.1339 98.9041 61.3601 98.8451 61.5568 98.7271C61.76 98.6091 61.9207 98.4419 62.0387 98.2256C62.1632 98.0027 62.2255 97.7404 62.2255 97.4388C62.2255 97.1307 62.1632 96.8685 62.0387 96.6521C61.9207 96.4358 61.76 96.2686 61.5568 96.1506C61.3601 96.0326 61.1339 95.9735 60.8782 95.9735C60.6225 95.9735 60.3931 96.0326 60.1898 96.1506C59.9866 96.2686 59.826 96.4358 59.708 96.6521C59.59 96.8685 59.5309 97.1307 59.5309 97.4388C59.5309 97.7404 59.59 98.0027 59.708 98.2256C59.826 98.4419 59.9866 98.6091 60.1898 98.7271C60.3931 98.8451 60.6225 98.9041 60.8782 98.9041ZM67.432 100.163C66.8288 100.163 66.2978 100.045 65.8389 99.8089C65.3865 99.5729 65.0358 99.2516 64.7866 98.8451C64.5375 98.4321 64.4129 97.9633 64.4129 97.4388C64.4129 96.9078 64.5342 96.439 64.7768 96.0326C65.0259 95.6195 65.3636 95.2983 65.7897 95.0688C66.2159 94.8328 66.6977 94.7148 67.2353 94.7148C67.7533 94.7148 68.2187 94.8262 68.6318 95.0491C69.0514 95.2655 69.3825 95.5802 69.625 95.9932C69.8676 96.3997 69.9889 96.8881 69.9889 97.4585C69.9889 97.5175 69.9856 97.5863 69.9791 97.665C69.9725 97.7371 69.9659 97.806 69.9594 97.8715H65.6619V96.9766H69.153L68.5629 97.2422C68.5629 96.9668 68.5072 96.7275 68.3958 96.5243C68.2843 96.321 68.1302 96.1637 67.9336 96.0522C67.7369 95.9342 67.5074 95.8752 67.2452 95.8752C66.9829 95.8752 66.7502 95.9342 66.5469 96.0522C66.3503 96.1637 66.1962 96.3243 66.0847 96.5341C65.9733 96.7373 65.9175 96.9799 65.9175 97.2618V97.4978C65.9175 97.7863 65.9798 98.042 66.1044 98.2649C66.2355 98.4813 66.4158 98.6484 66.6453 98.7665C66.8813 98.8779 67.1567 98.9336 67.4713 98.9336C67.7533 98.9336 67.9991 98.891 68.2089 98.8058C68.4253 98.7206 68.6219 98.5927 68.799 98.4223L69.6152 99.3073C69.3726 99.5827 69.0678 99.7958 68.7006 99.9466C68.3335 100.091 67.9106 100.163 67.432 100.163ZM71.0103 100.084V94.7934H72.4756V96.2882L72.269 95.8555C72.4264 95.4818 72.6788 95.1999 73.0263 95.0098C73.3737 94.8131 73.7966 94.7148 74.2949 94.7148V96.1309C74.2293 96.1243 74.1703 96.1211 74.1179 96.1211C74.0654 96.1145 74.0097 96.1112 73.9507 96.1112C73.5311 96.1112 73.1902 96.2325 72.9279 96.4751C72.6722 96.7111 72.5444 97.0815 72.5444 97.5863V100.084H71.0103ZM75.2167 100.084V94.7934H76.7508V100.084H75.2167ZM75.9837 94.0559C75.7018 94.0559 75.4724 93.9739 75.2953 93.81C75.1183 93.6461 75.0298 93.4429 75.0298 93.2003C75.0298 92.9577 75.1183 92.7545 75.2953 92.5906C75.4724 92.4267 75.7018 92.3447 75.9837 92.3447C76.2657 92.3447 76.4951 92.4234 76.6721 92.5808C76.8491 92.7315 76.9377 92.9282 76.9377 93.1708C76.9377 93.4265 76.8491 93.6396 76.6721 93.81C76.5017 93.9739 76.2722 94.0559 75.9837 94.0559ZM80.8003 100.163C80.1972 100.163 79.6661 100.045 79.2072 99.8089C78.7548 99.5729 78.4041 99.2516 78.1549 98.8451C77.9058 98.4321 77.7812 97.9633 77.7812 97.4388C77.7812 96.9078 77.9025 96.439 78.1451 96.0326C78.3942 95.6195 78.7319 95.2983 79.158 95.0688C79.5842 94.8328 80.066 94.7148 80.6036 94.7148C81.1216 94.7148 81.5871 94.8262 82.0001 95.0491C82.4197 95.2655 82.7508 95.5802 82.9933 95.9932C83.2359 96.3997 83.3572 96.8881 83.3572 97.4585C83.3572 97.5175 83.3539 97.5863 83.3474 97.665C83.3408 97.7371 83.3343 97.806 83.3277 97.8715H79.0302V96.9766H82.5213L81.9313 97.2422C81.9313 96.9668 81.8755 96.7275 81.7641 96.5243C81.6526 96.321 81.4986 96.1637 81.3019 96.0522C81.1052 95.9342 80.8757 95.8752 80.6135 95.8752C80.3512 95.8752 80.1185 95.9342 79.9153 96.0522C79.7186 96.1637 79.5645 96.3243 79.453 96.5341C79.3416 96.7373 79.2859 96.9799 79.2859 97.2618V97.4978C79.2859 97.7863 79.3481 98.042 79.4727 98.2649C79.6038 98.4813 79.7841 98.6484 80.0136 98.7665C80.2496 98.8779 80.525 98.9336 80.8397 98.9336C81.1216 98.9336 81.3674 98.891 81.5772 98.8058C81.7936 98.7206 81.9903 98.5927 82.1673 98.4223L82.9835 99.3073C82.7409 99.5827 82.4361 99.7958 82.0689 99.9466C81.7018 100.091 81.2789 100.163 80.8003 100.163ZM87.5944 94.7148C88.0139 94.7148 88.3876 94.8 88.7155 94.9705C89.0498 95.1344 89.3121 95.3901 89.5022 95.7375C89.6923 96.0784 89.7874 96.5177 89.7874 97.0553V100.084H88.2532V97.2913C88.2532 96.8652 88.1582 96.5505 87.9681 96.3472C87.7845 96.144 87.5222 96.0424 87.1813 96.0424C86.9387 96.0424 86.7191 96.0948 86.5224 96.1997C86.3323 96.2981 86.1815 96.4521 86.0701 96.6619C85.9652 96.8717 85.9127 97.1405 85.9127 97.4683V100.084H84.3786V94.7934H85.8439V96.2587L85.5685 95.8162C85.7586 95.4622 86.0307 95.1901 86.3848 95C86.7388 94.8098 87.142 94.7148 87.5944 94.7148ZM93.7733 100.163C93.2029 100.163 92.6948 100.048 92.249 99.8187C91.8032 99.5827 91.4524 99.2582 91.1967 98.8451C90.9476 98.4321 90.823 97.9633 90.823 97.4388C90.823 96.9078 90.9476 96.439 91.1967 96.0326C91.4524 95.6195 91.8032 95.2983 92.249 95.0688C92.6948 94.8328 93.2029 94.7148 93.7733 94.7148C94.3306 94.7148 94.8157 94.8328 95.2287 95.0688C95.6418 95.2983 95.9466 95.6294 96.1433 96.0621L94.9534 96.7013C94.8157 96.4521 94.642 96.2686 94.4322 96.1506C94.2289 96.0326 94.006 95.9735 93.7635 95.9735C93.5012 95.9735 93.2652 96.0326 93.0554 96.1506C92.8456 96.2686 92.6784 96.4358 92.5539 96.6521C92.4358 96.8685 92.3768 97.1307 92.3768 97.4388C92.3768 97.747 92.4358 98.0092 92.5539 98.2256C92.6784 98.4419 92.8456 98.6091 93.0554 98.7271C93.2652 98.8451 93.5012 98.9041 93.7635 98.9041C94.006 98.9041 94.2289 98.8484 94.4322 98.7369C94.642 98.6189 94.8157 98.4321 94.9534 98.1764L96.1433 98.8255C95.9466 99.2516 95.6418 99.5827 95.2287 99.8187C94.8157 100.048 94.3306 100.163 93.7733 100.163ZM99.5851 100.163C98.982 100.163 98.4509 100.045 97.992 99.8089C97.5396 99.5729 97.1889 99.2516 96.9397 98.8451C96.6906 98.4321 96.566 97.9633 96.566 97.4388C96.566 96.9078 96.6873 96.439 96.9299 96.0326C97.179 95.6195 97.5167 95.2983 97.9428 95.0688C98.369 94.8328 98.8508 94.7148 99.3884 94.7148C99.9064 94.7148 100.372 94.8262 100.785 95.0491C101.204 95.2655 101.536 95.5802 101.778 95.9932C102.021 96.3997 102.142 96.8881 102.142 97.4585C102.142 97.5175 102.139 97.5863 102.132 97.665C102.126 97.7371 102.119 97.806 102.113 97.8715H97.815V96.9766H101.306L100.716 97.2422C100.716 96.9668 100.66 96.7275 100.549 96.5243C100.437 96.321 100.283 96.1637 100.087 96.0522C99.89 95.9342 99.6605 95.8752 99.3983 95.8752C99.136 95.8752 98.9033 95.9342 98.7001 96.0522C98.5034 96.1637 98.3493 96.3243 98.2378 96.5341C98.1264 96.7373 98.0707 96.9799 98.0707 97.2618V97.4978C98.0707 97.7863 98.1329 98.042 98.2575 98.2649C98.3886 98.4813 98.5689 98.6484 98.7984 98.7665C99.0344 98.8779 99.3098 98.9336 99.6245 98.9336C99.9064 98.9336 100.152 98.891 100.362 98.8058C100.578 98.7206 100.775 98.5927 100.952 98.4223L101.768 99.3073C101.526 99.5827 101.221 99.7958 100.854 99.9466C100.487 100.091 100.064 100.163 99.5851 100.163Z" fill="white"/>
</svg>
